<?xml version="1.0" encoding="UTF-8" standalone="no"?>
<!DOCTYPE svg PUBLIC "-//W3C//DTD SVG 1.1//EN"
 "http://www.w3.org/Graphics/SVG/1.1/DTD/svg11.dtd">
<!-- Generated by graphviz version 9.0.0 (20230911.1827)
 -->
<!-- Pages: 1 -->
<svg width="1114pt" height="332pt"
 viewBox="0.00 0.00 1113.96 332.00" xmlns="http://www.w3.org/2000/svg" xmlns:xlink="http://www.w3.org/1999/xlink">
<g id="graph0" class="graph" transform="scale(1 1) rotate(0) translate(4 328)">
<polygon fill="white" stroke="none" points="-4,4 -4,-328 1109.96,-328 1109.96,4 -4,4"/>
<!-- [root] local_file.pets (expand) -->
<g id="node1" class="node">
<title>[root] local_file.pets (expand)</title>
<polygon fill="none" stroke="black" points="823.47,-180 730.97,-180 730.97,-144 823.47,-144 823.47,-180"/>
<text text-anchor="middle" x="777.22" y="-156.95" font-family="Times,serif" font-size="14.00">local_file.pets</text>
</g>
<!-- [root] provider[&quot;registry.terraform.io/hashicorp/local&quot;] -->
<g id="node2" class="node">
<title>[root] provider[&quot;registry.terraform.io/hashicorp/local&quot;]</title>
<polygon fill="none" stroke="black" points="777.22,-108 507.72,-90 777.22,-72 1046.71,-90 777.22,-108"/>
<text text-anchor="middle" x="777.22" y="-84.95" font-family="Times,serif" font-size="14.00">provider[&quot;registry.terraform.io/hashicorp/local&quot;]</text>
</g>
<!-- [root] local_file.pets (expand)&#45;&gt;[root] provider[&quot;registry.terraform.io/hashicorp/local&quot;] -->
<g id="edge1" class="edge">
<title>[root] local_file.pets (expand)&#45;&gt;[root] provider[&quot;registry.terraform.io/hashicorp/local&quot;]</title>
<path fill="none" stroke="black" d="M777.22,-143.7C777.22,-136.41 777.22,-127.73 777.22,-119.54"/>
<polygon fill="black" stroke="black" points="780.72,-119.62 777.22,-109.62 773.72,-119.62 780.72,-119.62"/>
</g>
<!-- [root] random_pet.pet (expand) -->
<g id="node4" class="node">
<title>[root] random_pet.pet (expand)</title>
<polygon fill="none" stroke="black" points="402.97,-108 301.47,-108 301.47,-72 402.97,-72 402.97,-108"/>
<text text-anchor="middle" x="352.22" y="-84.95" font-family="Times,serif" font-size="14.00">random_pet.pet</text>
</g>
<!-- [root] local_file.pets (expand)&#45;&gt;[root] random_pet.pet (expand) -->
<g id="edge2" class="edge">
<title>[root] local_file.pets (expand)&#45;&gt;[root] random_pet.pet (expand)</title>
<path fill="none" stroke="black" d="M730.52,-153.31C653.65,-140.65 500.42,-115.41 414.44,-101.25"/>
<polygon fill="black" stroke="black" points="415.2,-97.83 404.77,-99.66 414.07,-104.73 415.2,-97.83"/>
</g>
<!-- [root] provider[&quot;registry.terraform.io/hashicorp/random&quot;] -->
<g id="node3" class="node">
<title>[root] provider[&quot;registry.terraform.io/hashicorp/random&quot;]</title>
<polygon fill="none" stroke="black" points="352.22,-36 67.52,-18 352.22,0 636.91,-18 352.22,-36"/>
<text text-anchor="middle" x="352.22" y="-12.95" font-family="Times,serif" font-size="14.00">provider[&quot;registry.terraform.io/hashicorp/random&quot;]</text>
</g>
<!-- [root] random_pet.pet (expand)&#45;&gt;[root] provider[&quot;registry.terraform.io/hashicorp/random&quot;] -->
<g id="edge6" class="edge">
<title>[root] random_pet.pet (expand)&#45;&gt;[root] provider[&quot;registry.terraform.io/hashicorp/random&quot;]</title>
<path fill="none" stroke="black" d="M352.22,-71.7C352.22,-64.41 352.22,-55.73 352.22,-47.54"/>
<polygon fill="black" stroke="black" points="355.72,-47.62 352.22,-37.62 348.72,-47.62 355.72,-47.62"/>
</g>
<!-- [root] output.pet_name (expand) -->
<g id="node5" class="node">
<title>[root] output.pet_name (expand)</title>
<ellipse fill="none" stroke="black" cx="132.22" cy="-162" rx="132.22" ry="18"/>
<text text-anchor="middle" x="132.22" y="-156.95" font-family="Times,serif" font-size="14.00">[root] output.pet_name (expand)</text>
</g>
<!-- [root] output.pet_name (expand)&#45;&gt;[root] random_pet.pet (expand) -->
<g id="edge3" class="edge">
<title>[root] output.pet_name (expand)&#45;&gt;[root] random_pet.pet (expand)</title>
<path fill="none" stroke="black" d="M182.69,-144.94C214.74,-134.74 256.44,-121.47 290.46,-110.65"/>
<polygon fill="black" stroke="black" points="291.31,-114.05 299.78,-107.69 289.18,-107.38 291.31,-114.05"/>
</g>
<!-- [root] provider[&quot;registry.terraform.io/hashicorp/local&quot;] (close) -->
<g id="node6" class="node">
<title>[root] provider[&quot;registry.terraform.io/hashicorp/local&quot;] (close)</title>
<ellipse fill="none" stroke="black" cx="864.22" cy="-234" rx="241.74" ry="18"/>
<text text-anchor="middle" x="864.22" y="-228.95" font-family="Times,serif" font-size="14.00">[root] provider[&quot;registry.terraform.io/hashicorp/local&quot;] (close)</text>
</g>
<!-- [root] provider[&quot;registry.terraform.io/hashicorp/local&quot;] (close)&#45;&gt;[root] local_file.pets (expand) -->
<g id="edge4" class="edge">
<title>[root] provider[&quot;registry.terraform.io/hashicorp/local&quot;] (close)&#45;&gt;[root] local_file.pets (expand)</title>
<path fill="none" stroke="black" d="M842.71,-215.7C832.15,-207.2 819.24,-196.81 807.68,-187.51"/>
<polygon fill="black" stroke="black" points="809.94,-184.84 799.96,-181.3 805.55,-190.29 809.94,-184.84"/>
</g>
<!-- [root] provider[&quot;registry.terraform.io/hashicorp/random&quot;] (close) -->
<g id="node7" class="node">
<title>[root] provider[&quot;registry.terraform.io/hashicorp/random&quot;] (close)</title>
<ellipse fill="none" stroke="black" cx="352.22" cy="-234" rx="252.49" ry="18"/>
<text text-anchor="middle" x="352.22" y="-228.95" font-family="Times,serif" font-size="14.00">[root] provider[&quot;registry.terraform.io/hashicorp/random&quot;] (close)</text>
</g>
<!-- [root] provider[&quot;registry.terraform.io/hashicorp/random&quot;] (close)&#45;&gt;[root] random_pet.pet (expand) -->
<g id="edge5" class="edge">
<title>[root] provider[&quot;registry.terraform.io/hashicorp/random&quot;] (close)&#45;&gt;[root] random_pet.pet (expand)</title>
<path fill="none" stroke="black" d="M352.22,-215.59C352.22,-191.61 352.22,-148.14 352.22,-119.42"/>
<polygon fill="black" stroke="black" points="355.72,-119.62 352.22,-109.62 348.72,-119.62 355.72,-119.62"/>
</g>
<!-- [root] root -->
<g id="node8" class="node">
<title>[root] root</title>
<ellipse fill="none" stroke="black" cx="352.22" cy="-306" rx="49.3" ry="18"/>
<text text-anchor="middle" x="352.22" y="-300.95" font-family="Times,serif" font-size="14.00">[root] root</text>
</g>
<!-- [root] root&#45;&gt;[root] output.pet_name (expand) -->
<g id="edge7" class="edge">
<title>[root] root&#45;&gt;[root] output.pet_name (expand)</title>
<path fill="none" stroke="black" d="M303.55,-302.26C235.56,-297.3 117.52,-284.18 91.22,-252 75.79,-233.12 90.48,-207.49 106.41,-188.58"/>
<polygon fill="black" stroke="black" points="108.88,-191.07 112.94,-181.29 103.66,-186.4 108.88,-191.07"/>
</g>
<!-- [root] root&#45;&gt;[root] provider[&quot;registry.terraform.io/hashicorp/local&quot;] (close) -->
<g id="edge8" class="edge">
<title>[root] root&#45;&gt;[root] provider[&quot;registry.terraform.io/hashicorp/local&quot;] (close)</title>
<path fill="none" stroke="black" d="M397.65,-298.79C473.84,-288.37 629.87,-267.04 740.48,-251.92"/>
<polygon fill="black" stroke="black" points="740.77,-255.41 750.21,-250.59 739.83,-248.47 740.77,-255.41"/>
</g>
<!-- [root] root&#45;&gt;[root] provider[&quot;registry.terraform.io/hashicorp/random&quot;] (close) -->
<g id="edge9" class="edge">
<title>[root] root&#45;&gt;[root] provider[&quot;registry.terraform.io/hashicorp/random&quot;] (close)</title>
<path fill="none" stroke="black" d="M352.22,-287.7C352.22,-280.41 352.22,-271.73 352.22,-263.54"/>
<polygon fill="black" stroke="black" points="355.72,-263.62 352.22,-253.62 348.72,-263.62 355.72,-263.62"/>
</g>
</g>
</svg>
